<svg xmlns="http://www.w3.org/2000/svg" width="20" height="20" viewBox="0 0 20 20"><path fill="#282B32" fill-rule="evenodd" d="M10 .833c5.063 0 9.167 4.104 9.167 9.167S15.063 19.167 10 19.167.833 15.063.833 10 4.937.833 10 .833zm2.052 13.237l-.364.033c-.548.042-1.112.064-1.688.064-.705 0-1.392-.033-2.052-.096C8.438 16.142 9.25 17.5 10 17.5s1.563-1.358 2.052-3.43zm-9.016-1.282l.076.184c.783 1.813 2.262 3.256 4.1 3.993-.446-.861-.795-1.934-1.03-3.146-1.213-.236-2.286-.585-3.146-1.03zm13.929 0c-.867.448-1.937.796-3.146 1.03-.236 1.213-.585 2.286-1.03 3.146 1.899-.76 3.414-2.276 4.176-4.176zM10 7.5c-.826 0-1.618.052-2.357.144C7.552 8.384 7.5 9.175 7.5 10s.052 1.617.144 2.356c.738.092 1.53.144 2.356.144.825 0 1.617-.052 2.356-.144.092-.739.144-1.53.144-2.356 0-.825-.052-1.617-.144-2.356-.74-.092-1.53-.144-2.356-.144zm-4.071.449l-.196.047C3.773 8.49 2.5 9.274 2.5 10c0 .75 1.357 1.563 3.43 2.052-.064-.66-.097-1.348-.097-2.052s.033-1.39.096-2.051zm8.143 0l.022.25c.048.584.073 1.186.073 1.801 0 .704-.033 1.391-.096 2.052C16.143 11.562 17.5 10.75 17.5 10c0-.75-1.357-1.562-3.428-2.051zm-6.86-4.913l-.184.076c-1.813.783-3.256 2.262-3.993 4.1.861-.446 1.934-.795 3.146-1.03.236-1.213.585-2.286 1.03-3.146zm5.576 0c.448.866.796 1.936 1.03 3.145 1.213.236 2.286.585 3.146 1.03-.76-1.899-2.276-3.414-4.176-4.176zM10 2.5c-.75 0-1.563 1.358-2.052 3.43.66-.064 1.347-.097 2.052-.097.705 0 1.392.033 2.053.096C11.563 3.858 10.75 2.5 10 2.5z"></path></svg>