<svg width="330" height="124" viewBox="0 0 330 124" class="css-1j8o68f"><defs id="SvgjsDefs1754"></defs><g id="SvgjsG1755" featurekey="symbolContainer" transform="matrix(1,0,0,1,0,0)" fill="#262626"><rect width="110" height="124" rx="8"></rect></g><g id="SvgjsG1756" featurekey="monogramFeature-0" transform="matrix(2.1328458455482298,0,0,2.1328458455482298,19.999998093087214,-19.506358758682154)" fill="#0077c0"><path d="M0.72 16.560000000000002 l0 0 c0.06 -0.06 30.72 -0.48 30.84 -0.36 c0.9 0.78 1.26 10.38 1.26 20.28 c-1.32 1.26 -2.76 1.44 -3 1.44 c-0.84 0.06 -1.56 0.66 -1.8 1.56 c-0.24 1.08 0.42 2.16 1.5 2.4 c1.44 0.36 2.46 1.2 3.24 2.34 c-0.18 7.86 -0.54 14.34 -1.02 14.82 c-6.24 0.66 -12.3 -8.58 -13.86 -12 c-0.48 -1.02 -1.68 -1.44 -2.64 -0.96 c-1.02 0.42 -1.5 1.62 -1.02 2.64 c0 0 2.94 6.42 7.56 11.22 c-8.94 0.24 -20.76 0 -21.24 -0.9 c-1.2 -2.16 -0.06 -42.42 0.18 -42.48 z M14.34 24.9 l-0.36 6.18 c-0.12 1.14 0.78 2.1 1.86 2.16 c1.14 0.12 2.1 -0.78 2.16 -1.86 l0.36 -6.18 c0.12 -1.14 -0.78 -2.1 -1.86 -2.16 s-2.04 0.78 -2.16 1.86 z"></path></g><g id="SvgjsG1757" featurekey="nameFeature-0" transform="matrix(0.9840583035324955,0,0,0.9840583035324955,127.6382585699682,36.191300357610054)" fill="#fafafa"><path d="M24.44 40 l-6.2 0 l-5.96 -9.32 l-0.08 0 l-3.96 0 l0 9.32 l-5.84 0 l0 -28 l9.8 0 c6.28 0 10.36 3.8 10.36 9.52 c0 3.8 -1.84 6.64 -4.96 8.08 z M8.24 17.36 l0 8.28 l3.6 0 c2.88 0 4.88 -1.12 4.88 -4.12 c0 -2.96 -2 -4.16 -4.88 -4.16 l-3.6 0 z M37.96 18.84 c4.72 0 11.24 3.56 10 12.76 l-15.12 0 c0.72 2.6 2.88 3.96 5.68 3.96 c2.6 0 3.6 -0.6 5.08 -1.4 l3.16 3.08 c-1.8 1.88 -4.36 3.16 -8.44 3.16 c-5.2 0 -11.28 -3.56 -11.28 -10.72 c0 -7.28 6.2 -10.84 10.92 -10.84 z M37.96 23.72 c-2.08 0 -4.28 1.28 -5.04 3.84 l10 0 c-0.64 -2.56 -2.92 -3.84 -4.96 -3.84 z M61.559999999999995 25.439999999999998 c-0.64 -1.48 -1.56 -2.04 -2.68 -2.04 c-1.04 0 -2 0.64 -2 1.56 c0 0.88 0.56 1.44 1.68 1.84 l2.52 0.92 c3.04 1.08 6 2.2 6 6.24 c0 4.16 -4.12 6.52 -8.32 6.52 c-3.8 0 -7.4 -2.24 -8.24 -5.88 l4.52 -1.4 c0.52 1.4 1.64 2.72 3.72 2.72 c1.48 0 2.6 -0.96 2.6 -2 c0 -0.68 -0.48 -1.28 -1.72 -1.76 l-2.4 -0.84 c-4.08 -1.48 -5.96 -3.6 -5.96 -6.44 c0 -3.76 3.48 -6.04 7.36 -6.04 c3.92 0 6.52 2.12 7.72 5.36 z M77.96000000000001 40.32 c-3.96 0 -7.88 -2.6 -7.88 -9.16 l0 -11.96 l5.72 0 l0 11.56 c0 3.4 1.32 4.56 3.52 4.56 c3.04 0 4.84 -2.88 5.28 -4.32 l0 -11.8 l5.72 0 l0 20.8 l-5.72 0 l0 -3.84 c-0.4 1.08 -2.64 4.16 -6.64 4.16 z M121.72 18.88 c4.32 0 8.24 2.8 8.24 9.76 l0 11.36 l-5.72 0 l0 -11.24 c0 -2.88 -1.32 -4.88 -4.28 -4.88 c-2.68 0 -4.36 2.28 -4.88 4.4 l0 11.72 l-5.72 0 l0 -11.24 c0 -2.88 -1.8 -4.88 -4.28 -4.88 c-2.8 0 -4.44 2 -4.88 4.4 l0 11.72 l-5.72 0 l0 -20.8 l5.72 0 l0 4 c0.12 -1.08 2.16 -4.32 6.32 -4.32 c2.96 0 5.92 1.6 7.52 4.68 c0.56 -1.32 2.96 -4.68 7.68 -4.68 z M144.07999999999998 18.84 c4.72 0 11.24 3.56 10 12.76 l-15.12 0 c0.72 2.6 2.88 3.96 5.68 3.96 c2.6 0 3.6 -0.6 5.08 -1.4 l3.16 3.08 c-1.8 1.88 -4.36 3.16 -8.44 3.16 c-5.2 0 -11.28 -3.56 -11.28 -10.72 c0 -7.28 6.2 -10.84 10.92 -10.84 z M144.07999999999998 23.72 c-2.08 0 -4.28 1.28 -5.04 3.84 l10 0 c-0.64 -2.56 -2.92 -3.84 -4.96 -3.84 z M182.83999999999997 40 l-6.88 0 l-6.04 -9 l-6 9 l-6.88 0 l9.4 -14.16 l-9.28 -13.84 l6.88 0 l5.84 8.68 l5.76 -8.68 l6.88 0 l-9.2 13.84 z M205.64 12 l0 5.36 l-6.96 0 l0 22.64 l-5.84 0 l0 -22.64 l-7 0 l0 -5.36 l19.8 0 z"></path></g></svg>